<?xml version="1.0" encoding="UTF-8" standalone="no"?>
<svg
   xmlns:dc="http://purl.org/dc/elements/1.1/"
   xmlns:cc="http://creativecommons.org/ns#"
   xmlns:rdf="http://www.w3.org/1999/02/22-rdf-syntax-ns#"
   xmlns:svg="http://www.w3.org/2000/svg"
   xmlns="http://www.w3.org/2000/svg"
   xmlns:xlink="http://www.w3.org/1999/xlink"
   xmlns:sodipodi="http://sodipodi.sourceforge.net/DTD/sodipodi-0.dtd"
   xmlns:inkscape="http://www.inkscape.org/namespaces/inkscape"
   height="100px"
   width="100px"
   fill="#000000"
   version="1.1"
   x="0px"
   y="0px"
   viewBox="0 0 36 36"
   style="enable-background:new 0 0 36 36;"
   xml:space="preserve"
   id="svg94"
   sodipodi:docname="logo.svg"
   inkscape:version="1.0.2 (e86c870879, 2021-01-15)"
   inkscape:export-filename="/home/wesley/code/parsimony/images/logo.png"
   inkscape:export-xdpi="96"
   inkscape:export-ydpi="96"><metadata
     id="metadata100"><rdf:RDF><cc:Work
         rdf:about=""><dc:format>image/svg+xml</dc:format><dc:type
           rdf:resource="http://purl.org/dc/dcmitype/StillImage" /></cc:Work></rdf:RDF></metadata><defs
     id="defs98"><linearGradient
       inkscape:collect="always"
       id="linearGradient990"><stop
         style="stop-color:#ff0000;stop-opacity:1"
         offset="0"
         id="stop986" /><stop
         style="stop-color:#ff6600;stop-opacity:1"
         offset="0.10256933"
         id="stop992" /><stop
         style="stop-color:#ffcc00;stop-opacity:1"
         offset="0.28869459"
         id="stop994" /><stop
         style="stop-color:#008000;stop-opacity:1"
         offset="0.47191525"
         id="stop998" /><stop
         style="stop-color:#04c8fc;stop-opacity:1"
         offset="0.63853204"
         id="stop996" /><stop
         style="stop-color:#0000a4;stop-opacity:1"
         offset="0.83187115"
         id="stop1000" /><stop
         style="stop-color:#3c0054;stop-opacity:1"
         offset="1"
         id="stop988" /></linearGradient><linearGradient
       inkscape:collect="always"
       xlink:href="#linearGradient990"
       id="linearGradient982"
       x1="5.98"
       y1="14.23"
       x2="15.12"
       y2="5"
       gradientUnits="userSpaceOnUse" /><linearGradient
       inkscape:collect="always"
       xlink:href="#linearGradient990"
       id="linearGradient984"
       gradientUnits="userSpaceOnUse"
       x1="5.98"
       y1="14.23"
       x2="15.12"
       y2="5" /><linearGradient
       inkscape:collect="always"
       xlink:href="#linearGradient990"
       id="linearGradient1012"
       x1="22.5"
       y1="25.145"
       x2="31.9825"
       y2="25.145"
       gradientUnits="userSpaceOnUse" /><linearGradient
       inkscape:collect="always"
       xlink:href="#linearGradient990"
       id="linearGradient1020"
       x1="19.787899"
       y1="16.013865"
       x2="30.266615"
       y2="4.8797193"
       gradientUnits="userSpaceOnUse" /><linearGradient
       inkscape:collect="always"
       xlink:href="#linearGradient990"
       id="linearGradient1028"
       x1="5.6374493"
       y1="30.801104"
       x2="16.19433"
       y2="20.10738"
       gradientUnits="userSpaceOnUse" /></defs><sodipodi:namedview
     pagecolor="#ffffff"
     bordercolor="#666666"
     borderopacity="1"
     objecttolerance="10"
     gridtolerance="10"
     guidetolerance="10"
     inkscape:pageopacity="0"
     inkscape:pageshadow="2"
     inkscape:window-width="1754"
     inkscape:window-height="1188"
     id="namedview96"
     showgrid="false"
     inkscape:zoom="7.1276364"
     inkscape:cx="45.621886"
     inkscape:cy="50.493745"
     inkscape:window-x="1652"
     inkscape:window-y="92"
     inkscape:window-maximized="0"
     inkscape:current-layer="svg94" /><path
     d="M9,30h1.5v0.5c0,0.28,0.22,0.5,0.5,0.5s0.5-0.22,0.5-0.5V30H13c0.28,0,0.5-0.22,0.5-0.5v-4c0-0.28-0.22-0.5-0.5-0.5h-1.5v-3  h1v1.5c0,0.28,0.22,0.5,0.5,0.5s0.5-0.22,0.5-0.5v-2c0-0.28-0.22-0.5-0.5-0.5h-1.5v-0.5c0-0.28-0.22-0.5-0.5-0.5s-0.5,0.22-0.5,0.5  V21H9c-0.28,0-0.5,0.22-0.5,0.5v4C8.5,25.78,8.72,26,9,26h1.5v3h-1v-1.5C9.5,27.22,9.28,27,9,27s-0.5,0.22-0.5,0.5v2  C8.5,29.78,8.72,30,9,30z M11.5,26h1v3h-1V26z M9.5,25v-3h1v3H9.5z"
     id="path82"
     style="stroke:#ffffff;stroke-opacity:1;stroke-width:0.18;stroke-miterlimit:4;stroke-dasharray:none" /><path
     d="M11,33c4.14,0,7.5-3.36,7.5-7.5S15.14,18,11,18s-7.5,3.36-7.5,7.5S6.86,33,11,33z M11,19c3.58,0,6.5,2.92,6.5,6.5  S14.58,32,11,32s-6.5-2.92-6.5-6.5S7.42,19,11,19z"
     id="path84"
     style="fill-opacity:1;fill:url(#linearGradient1028)" /><path
     d="M27,6h-1.5V5.66c0-0.28-0.22-0.5-0.5-0.5s-0.5,0.22-0.5,0.5V6H23c-0.28,0-0.5,0.22-0.5,0.5v4c0,0.28,0.22,0.5,0.5,0.5h1.5v3  h-1v-1.5c0-0.28-0.22-0.5-0.5-0.5s-0.5,0.22-0.5,0.5v2c0,0.28,0.22,0.5,0.5,0.5h1.5v0.66c0,0.28,0.22,0.5,0.5,0.5s0.5-0.22,0.5-0.5  V15H27c0.28,0,0.5-0.22,0.5-0.5v-4c0-0.28-0.22-0.5-0.5-0.5h-1.5V7h1v1.5C26.5,8.78,26.72,9,27,9s0.5-0.22,0.5-0.5v-2  C27.5,6.22,27.28,6,27,6z M24.5,10h-1V7h1V10z M26.5,11v3h-1v-3H26.5z"
     id="path86"
     style="fill-opacity:1;fill:#000000;stroke:#ffffff;stroke-opacity:1;stroke-width:0.18;stroke-miterlimit:4;stroke-dasharray:none" /><path
     d="M25,3c-4.14,0-7.5,3.36-7.5,7.5S20.86,18,25,18s7.5-3.36,7.5-7.5S29.14,3,25,3z M25,17c-3.58,0-6.5-2.92-6.5-6.5  S21.42,4,25,4s6.5,2.92,6.5,6.5S28.58,17,25,17z"
     id="path88"
     style="fill-opacity:1;fill:url(#linearGradient1020)" /><path
     d="M31.84,20.55c-0.2-0.2-0.51-0.2-0.71,0l-7.63,7.63v-4.45c0-0.28-0.22-0.5-0.5-0.5s-0.5,0.22-0.5,0.5v5.66  c0,0.07,0.01,0.13,0.04,0.19c0,0,0,0,0,0c0,0,0,0,0,0c0.03,0.08,0.09,0.15,0.16,0.2c0.02,0.01,0.03,0.02,0.05,0.03  c0.07,0.04,0.16,0.08,0.25,0.08h5.66c0.28,0,0.5-0.22,0.5-0.5s-0.22-0.5-0.5-0.5h-4.45l7.63-7.63  C32.03,21.07,32.03,20.75,31.84,20.55z"
     id="path90"
     style="fill-opacity:1.0;fill:url(#linearGradient1012)" /><g
     id="g934"
     style="fill-opacity:1.0;fill:url(#linearGradient982)"><path
       d="M15.12,5c-0.2-0.2-0.51-0.2-0.71,0l-7.63,7.63V8.18c0-0.28-0.22-0.5-0.5-0.5s-0.5,0.22-0.5,0.5v5.66  c0,0.07,0.01,0.13,0.04,0.19c0,0,0,0,0,0c0,0,0,0,0,0c0.03,0.08,0.09,0.15,0.16,0.2c0.02,0.01,0.03,0.02,0.05,0.03  c0.07,0.04,0.16,0.08,0.25,0.08h5.66c0.28,0,0.5-0.22,0.5-0.5s-0.22-0.5-0.5-0.5H7.49l7.63-7.63C15.32,5.51,15.32,5.19,15.12,5z"
       id="path92"
       style="fill-opacity:1.0;fill:url(#linearGradient984)" /><path
       d="M15.12,5c-0.2-0.2-0.51-0.2-0.71,0l-7.63,7.63V8.18c0-0.28-0.22-0.5-0.5-0.5s-0.5,0.22-0.5,0.5v5.66  c0,0.07,0.01,0.13,0.04,0.19c0,0,0,0,0,0c0,0,0,0,0,0c0.03,0.08,0.09,0.15,0.16,0.2c0.02,0.01,0.03,0.02,0.05,0.03  c0.07,0.04,0.16,0.08,0.25,0.08h5.66c0.28,0,0.5-0.22,0.5-0.5s-0.22-0.5-0.5-0.5H7.49l7.63-7.63C15.32,5.51,15.32,5.19,15.12,5z"
       id="path1002"
       style="fill-opacity:1.0;fill:url(#linearGradient984)" /></g><path
     style="fill:none;fill-opacity:1;stroke:#ffffff;stroke-width:0.57;stroke-miterlimit:4;stroke-dasharray:none;stroke-opacity:1"
     d="m 28.017193,88.638972 c -4.646251,-0.676604 -9.130286,-3.385566 -11.953102,-7.221286 -4.004244,-5.441077 -4.585022,-12.765724 -1.48771,-18.762689 1.784888,-3.455872 5.029978,-6.57329 8.47831,-8.144745 9.856532,-4.491766 21.362426,0.642682 24.640012,10.995482 0.602233,1.902256 0.790503,3.171995 0.790503,5.33136 0,2.159366 -0.18827,3.429105 -0.790503,5.331361 -0.909075,2.871458 -2.335598,5.196131 -4.519925,7.365696 -3.499246,3.475596 -7.902327,5.292787 -12.70518,5.243539 -0.887391,-0.0091 -1.990973,-0.07152 -2.452405,-0.138718 z m 3.399423,-3.111068 c 0.272343,-0.24927 0.315673,-0.430004 0.315673,-1.316714 v -1.027787 h 2.395874 2.395876 l 0.410103,-0.410105 0.410106,-0.410104 V 76.39752 70.431845 l -0.338291,-0.393647 -0.33829,-0.393645 -2.467689,-0.04412 -2.467689,-0.04412 v -4.340224 -4.340224 h 1.613438 1.613438 v 2.461609 c 0,2.426495 0.0049,2.466521 0.344371,2.805979 0.482708,0.48271 1.107343,0.457529 1.630606,-0.06573 l 0.410106,-0.410105 V 62.489306 59.310995 L 36.934142,58.90089 36.524039,58.490786 h -2.395876 -2.395874 v -1.027787 c 0,-0.917868 -0.03792,-1.063411 -0.354583,-1.3609 -0.509078,-0.478253 -1.260908,-0.454556 -1.697933,0.05352 -0.280844,0.3265 -0.332566,0.538154 -0.332566,1.3609 v 0.97427 h -2.37726 c -2.31044,0 -2.388322,0.0095 -2.770904,0.338472 l -0.393646,0.338472 -0.04385,5.729458 c -0.03028,3.957064 0.005,5.895576 0.114114,6.266452 0.239178,0.813079 0.671998,0.936145 3.292405,0.936145 h 2.179141 v 4.349268 4.349268 h -1.534245 -1.534245 l -0.04412,-2.467689 -0.04412,-2.467689 -0.393646,-0.33829 c -0.503248,-0.43248 -1.094853,-0.432329 -1.597791,4.2e-4 l -0.393646,0.338693 v 3.305263 c 0,4.270441 -0.265348,3.927961 3.090115,3.988343 l 2.451695,0.04412 v 0.954128 c 0,0.744826 0.06217,1.033162 0.283394,1.314405 0.454797,0.578182 1.19147,0.602055 1.786015,0.05788 z"
     id="path1054"
     transform="scale(0.36)" /><path
     style="fill:none;fill-opacity:1;stroke:#ffffff;stroke-width:0.57;stroke-miterlimit:4;stroke-dasharray:none;stroke-opacity:1"
     d="m 26.260629,65.225136 v -4.349268 h 1.543289 1.543289 v 4.349268 4.349268 h -1.543289 -1.543289 z"
     id="path1056"
     transform="scale(0.36)" /><path
     style="fill:none;fill-opacity:1;stroke:#ffffff;stroke-width:0.57;stroke-miterlimit:4;stroke-dasharray:none;stroke-opacity:1"
     d="m 31.732289,76.449053 v -4.349268 h 1.613438 1.613438 v 4.349268 4.349268 h -1.613438 -1.613438 z"
     id="path1058"
     transform="scale(0.36)" /><path
     style="fill:none;fill-opacity:1;stroke:#ffffff;stroke-width:0.57;stroke-miterlimit:4;stroke-dasharray:none;stroke-opacity:1"
     d="M 66.928038,46.976179 C 62.598737,46.340286 58.476513,44.03806 55.732553,40.7236 c -1.864587,-2.252258 -2.981526,-4.423496 -3.763202,-7.315361 -0.341647,-1.263948 -0.36864,-1.574404 -0.36864,-4.239937 0,-2.665533 0.02699,-2.975989 0.36864,-4.239937 1.694818,-6.270099 6.033692,-10.918775 12.011786,-12.869445 6.44989,-2.1046189 13.640164,-0.262325 18.397343,4.71377 4.542932,4.751991 6.117519,11.197847 4.278728,17.515753 -1.879647,6.458281 -7.660178,11.532246 -14.378518,12.621001 -1.409291,0.228386 -4.027752,0.261045 -5.350652,0.06674 z m 3.421541,-2.666865 c 0.192889,-0.236006 0.245523,-0.56777 0.245523,-1.547555 v -1.247148 h 2.395874 2.395876 l 0.410104,-0.410105 0.410105,-0.410104 v -5.965675 -5.965674 l -0.338291,-0.393647 -0.33829,-0.393645 -2.467689,-0.04412 -2.467689,-0.04412 V 23.5473 19.207075 h 1.613438 1.613438 v 2.46161 c 0,2.458022 5.61e-4,2.462135 0.361413,2.823021 0.30586,0.305861 0.449,0.349665 0.931246,0.284982 1.016627,-0.136358 1.01702,-0.137724 1.064978,-3.702978 0.04585,-3.408708 -0.01616,-3.818096 -0.619984,-4.093218 -0.213508,-0.09728 -1.239422,-0.158499 -2.656197,-0.158499 h -2.308332 v -0.797677 c 0,-1.007194 -0.343911,-1.447106 -1.131305,-1.447106 -0.828625,0 -1.151307,0.361896 -1.224463,1.373269 l -0.06176,0.853808 -2.451701,0.04393 c -2.382149,0.04268 -2.459301,0.05332 -2.719608,0.375143 -0.254378,0.31449 -0.267907,0.635542 -0.267907,6.357752 0,3.662753 0.05387,6.127189 0.137337,6.283153 0.23588,0.440744 0.94294,0.56673 3.180624,0.56673 h 2.153699 v 4.349268 4.349267 H 66.666729 65.12344 v -2.308331 c 0,-1.392915 -0.06177,-2.44391 -0.15577,-2.65021 -0.30232,-0.663521 -1.243745,-0.847103 -1.859644,-0.362636 l -0.369668,0.290781 v 3.341449 c 0,4.356074 -0.272055,3.989438 3.003738,4.047999 l 2.467922,0.04412 v 1.194289 c 0,1.143966 0.01801,1.2123 0.427405,1.621697 0.369519,0.369518 0.497781,0.416139 0.947018,0.344222 0.285788,-0.04575 0.630098,-0.218367 0.765136,-0.383592 z"
     id="path1060"
     transform="scale(0.36)" /><path
     style="fill:none;fill-opacity:1;stroke:#ffffff;stroke-width:0.57;stroke-miterlimit:4;stroke-dasharray:none;stroke-opacity:1"
     d="m 70.595102,34.780261 v -4.349268 h 1.613438 1.613438 v 4.349268 4.349267 H 72.20854 70.595102 Z"
     id="path1062"
     transform="scale(0.36)" /><path
     style="fill:none;fill-opacity:1;stroke:#ffffff;stroke-width:0.57;stroke-miterlimit:4;stroke-dasharray:none;stroke-opacity:1"
     d="m 65.123442,23.556343 v -4.349268 h 1.543289 1.543289 v 4.349268 4.349268 h -1.543289 -1.543289 z"
     id="path1064"
     transform="scale(0.36)" /></svg>
